<?xml version="1.0" encoding="utf-8"?>
<svg version="1.1" xmlns="http://www.w3.org/2000/svg" xmlns:xlink="http://www.w3.org/1999/xlink" x="0px" y="0px"
	 viewBox="0 0 676 123" style="enable-background:new 0 0 676 123;" xml:space="preserve">
<path class="st0" d="M0,118.7c1.5-0.7,2.7-1.9,3.4-3.4c0.8-1.5,1.2-3.9,1.2-7.1V15.4c0-3.3-0.4-5.6-1.2-7.1C2.7,6.8,1.5,5.6,0,4.9
	V4.4h54.9C59,4.4,61.5,3,62.2,0h0.5l-0.1,34.6h-0.5C58.8,19.7,55,12.2,46.7,9.2c-2.6-0.7-5.3-1.1-8-1.1h-8.9c-3.9,0-6.7,0.7-8.2,2.1
	s-2.3,3.8-2.3,7.2v40.1h13.4c5,0,9.4-1.4,11.3-3.8s4.1-4.1,3.9-10.2h0.5v30.8H48c-1.4-6.1-3.3-8.3-6-10.6s-3.6-2.5-8.7-2.5H19.4
	v45.9c-0.1,2.6,0.5,5.2,1.8,7.5c1.2,2,3.1,3.4,5.3,4.1v0.5H0V118.7z M532.4,123c-0.4-1.2-1.3-2.2-2.4-2.9c-1.5-0.7-3.2-1-4.9-0.9
	h-54.7v-0.5c1.5-0.7,2.7-1.9,3.5-3.4c0.8-1.5,1.1-3.9,1.1-7.1V15.4c0-3.3-0.4-5.6-1.1-7.1c-0.8-1.5-2-2.6-3.5-3.4V4.4h23.9v0.5
	c-1.5,0.7-2.7,1.9-3.4,3.4c-0.8,1.5-1.1,3.8-1.1,7.1v89.1c0,4,0.9,6.9,2.6,8.5s5,2.4,9.8,2.4c1.2,0,4.7,0,5.9-0.1
	c2.6-0.1,5.1-0.4,7.7-0.9c3.1-0.7,4.5-1,7-2.9c7.1-5.4,7.8-15.4,9.4-27h0.7l0.1,38.4H532.4z M135,123c-0.5-1.2-1.3-2.2-2.5-2.9
	c-1.5-0.7-3.2-1-4.9-0.9H73v-0.5c1.5-0.7,2.7-1.9,3.4-3.4c0.8-1.5,1.2-3.9,1.2-7.1V15.4c0-3.3-0.4-5.6-1.2-7.1
	c-0.7-1.5-2-2.6-3.4-3.4V4.4h24v0.5c-1.5,0.7-2.7,1.9-3.4,3.4c-0.8,1.5-1.2,3.8-1.2,7.1v89.1c0,4,0.9,6.9,2.6,8.5s5,2.4,9.8,2.4
	c1.2,0,4.7,0,5.9-0.1c2.6-0.1,5.1-0.4,7.7-0.9c3.1-0.7,4.5-1,7-2.9c7.1-5.4,7.9-15.4,9.4-27h0.7l0.1,38.4H135z M170.7,113.8
	c-8.5-5.2-15.5-12.6-20.3-21.4c-5.3-9.3-8-19.9-7.9-30.6c-0.1-10.7,2.6-21.3,7.9-30.6c4.8-8.8,11.8-16.1,20.3-21.4
	c9.4-5.8,20.3-8.7,32.8-8.7c12.5,0,23.4,2.9,32.8,8.7c8.5,5.2,15.5,12.6,20.3,21.4c5.3,9.3,8,19.9,7.9,30.6
	c0.1,10.7-2.6,21.3-7.9,30.6c-4.8,8.8-11.8,16.2-20.3,21.4c-9.4,5.8-20.3,8.7-32.8,8.7C191,122.5,180.1,119.6,170.7,113.8z
	 M232.3,108c5.1-4.7,9.1-11.2,12-19.7c3-8.5,4.5-17.5,4.3-26.5c0.1-9-1.3-18-4.3-26.5c-2.9-8.4-6.9-15-12-19.7
	C224.6,8.4,215,4.8,203.5,4.8c-11.5,0-21.1,3.6-28.9,10.8c-5.1,4.7-9.2,11.2-12.1,19.7c-3,8.5-4.5,17.5-4.3,26.5
	c-0.2,9,1.3,18,4.3,26.5c2.9,8.4,6.9,15,12.1,19.7c7.8,7.2,17.4,10.8,28.9,10.8C215,118.8,224.6,115.2,232.3,108L232.3,108z
	 M366.3,117.6v0.5c-1.6,0.9-3.3,1.5-5,1.9c-2.1,0.5-4.3,0.8-6.5,0.7c-5.1,0-9.3-1.2-12.6-3.7c-3.3-2.5-6.3-7.7-9-13.6l-11.8-26.1
	c-1.7-3.7-3.8-7.1-6.3-10.3c-1.7-2.3-3.9-4.2-6.6-5.3c-3.2-1.2-6.5-1.7-9.9-1.6h-4.8v48c0,3.3,0.4,5.7,1.1,7.1
	c0.8,1.5,2,2.6,3.4,3.4v0.5h-23.9v-0.5c1.5-0.7,2.7-1.9,3.4-3.4c0.8-1.5,1.1-3.9,1.1-7.1V15.4c0-3.3-0.4-5.6-1.1-7.1
	c-0.8-1.5-2-2.6-3.4-3.4V4.4h29.2c10.7,0,19.1,2.3,25.2,6.8c6.1,4.5,9.1,10.7,9.1,18.6c0.1,6.5-2.3,12.8-6.8,17.5
	c-4.5,4.9-11.1,8-19.8,9.2c5.4,0,10.5,2,14.6,5.5c4,3.5,7.8,8.9,11.1,16.1l9.8,21c2.5,5.3,5.3,10.6,8.4,13.8s6.1,4.8,9.2,4.8
	C365.1,117.8,365.7,117.7,366.3,117.6z M293.9,56.7h4.8c8.4,0,14.7-2.3,18.9-6.8c4.2-4.5,6.3-10.2,6.3-18.9c0-8.1-1.7-12.3-5.2-16.6
	s-8.4-6.5-15-6.5c-3.8,0-6.4,0.7-7.8,2s-2,4.1-2,8.1V56.7z M450.8,102.2c3.4,9.8,6.7,15.4,9.8,16.6v0.5h-31v-0.5
	c2-0.4,3.7-1.5,4.8-3.2c1.2-1.9,1.8-4.1,1.7-6.3c0-2.6-0.5-5.2-1.5-7.7L422.7,66l-31.9-0.2l-8.1,24.7c-1.3,3.7-2,7.6-2,11.5
	c-0.2,3.9,0.8,7.7,2.8,11.1c1.9,2.9,3.2,4.8,6,5.7v0.5h-27.2v-0.5c3.2-1.3,5.1-4.2,7.9-8.8s5.6-11.1,8.5-19.6l20.7-62.6
	c1.1-3.4,1.7-7,1.8-10.7c0-3.6,0.4-7.1-1-10.5l-0.8-2.1h17.5L450.8,102.2z M405.9,16.7l-14,45.7h29.6L405.9,16.7z M666.2,102.2
	c3.4,9.8,6.7,15.4,9.8,16.6v0.5h-31v-0.5c2-0.4,3.7-1.5,4.8-3.2c1.2-1.9,1.8-4.1,1.7-6.3c0-2.6-0.5-5.2-1.5-7.7L638,66l-31.9-0.2
	L598,90.5c-1.3,3.7-2,7.6-2,11.5c0,4.5,0.9,8.2,2.8,11.1c1.9,2.9,3.2,4.8,6,5.7v0.5h-27.2v-0.5c3.2-1.3,5.1-4.2,7.9-8.8
	s5.6-11.1,8.4-19.6l20.7-62.6c1.1-3.4,1.7-7,1.8-10.7c0-3.6,0.4-7.1-1-10.5l-0.8-2.1h17.5L666.2,102.2z M621.2,16.7l-14,45.7h29.6
	L621.2,16.7z M544.2,118.7c1.5-0.7,2.7-1.9,3.4-3.4c0.8-1.5,1.2-3.9,1.2-7.1V15.4c0-3.3-0.4-5.6-1.2-7.1c-0.8-1.5-2-2.6-3.4-3.4V4.4
	h23.9v0.5c-1.5,0.7-2.7,1.9-3.4,3.4c-0.8,1.5-1.2,3.8-1.2,7.1v92.8c0,3.3,0.4,5.7,1.2,7.1c0.8,1.5,2,2.6,3.4,3.4v0.5h-23.9V118.7z"
	/>
</svg>
