<?xml version="1.0" encoding="utf-8"?>
<!-- Generator: Adobe Illustrator 24.1.1, SVG Export Plug-In . SVG Version: 6.00 Build 0)  -->
<svg version="1.1" id="Capa_1" xmlns="http://www.w3.org/2000/svg" xmlns:xlink="http://www.w3.org/1999/xlink" x="0px" y="0px"
	 viewBox="0 0 38 49.8" style="enable-background:new 0 0 38 49.8;" xml:space="preserve">
<path d="M31.4,11.7C31,5.2,25.6,0,19,0S7,5.2,6.6,11.7H0v38h38v-38H31.4z M19,1.3c5.9,0,10.7,4.6,11,10.4H8C8.3,5.9,13.2,1.3,19,1.3
	z M30,13.1c-0.4,5.8-5.2,10.4-11,10.4S8.3,18.9,8,13.1H30z M36.7,48.4H1.3V13.1h5.3C7,19.6,12.4,24.8,19,24.8s12-5.2,12.4-11.7h5.3
	V48.4z"/>
</svg>
